<mxfile host="app.diagrams.net" modified="2023-07-04T11:48:09.599Z" agent="Mozilla/5.0 (Windows NT 10.0; Win64; x64) AppleWebKit/537.36 (KHTML, like Gecko) Chrome/114.0.0.0 Safari/537.36" etag="KEJS0Gw4fQYulfKIO-tT" version="21.5.0" type="github">
  <diagram name="第 1 页" id="BL0lALEWLOFtRl3htOB4">
    <mxGraphModel dx="1593" dy="849" grid="1" gridSize="10" guides="1" tooltips="1" connect="1" arrows="1" fold="1" page="1" pageScale="1" pageWidth="1169" pageHeight="827" math="0" shadow="0">
      <root>
        <mxCell id="0" />
        <mxCell id="1" parent="0" />
        <mxCell id="751wEYb7Iz7aQskUgbho-3" value="" style="edgeStyle=orthogonalEdgeStyle;rounded=0;orthogonalLoop=1;jettySize=auto;html=1;" edge="1" parent="1" source="751wEYb7Iz7aQskUgbho-1" target="751wEYb7Iz7aQskUgbho-2">
          <mxGeometry relative="1" as="geometry" />
        </mxCell>
        <mxCell id="751wEYb7Iz7aQskUgbho-1" value="fileserver" style="rounded=1;whiteSpace=wrap;html=1;fillColor=#ffe6cc;strokeColor=#d79b00;" vertex="1" parent="1">
          <mxGeometry x="410" y="120" width="120" height="60" as="geometry" />
        </mxCell>
        <mxCell id="751wEYb7Iz7aQskUgbho-5" value="" style="edgeStyle=orthogonalEdgeStyle;rounded=0;orthogonalLoop=1;jettySize=auto;html=1;" edge="1" parent="1" source="751wEYb7Iz7aQskUgbho-2" target="751wEYb7Iz7aQskUgbho-4">
          <mxGeometry relative="1" as="geometry" />
        </mxCell>
        <mxCell id="751wEYb7Iz7aQskUgbho-2" value="flume" style="whiteSpace=wrap;html=1;rounded=1;fillColor=#ffe6cc;strokeColor=#d79b00;" vertex="1" parent="1">
          <mxGeometry x="410" y="260" width="120" height="60" as="geometry" />
        </mxCell>
        <mxCell id="751wEYb7Iz7aQskUgbho-7" value="" style="edgeStyle=orthogonalEdgeStyle;rounded=0;orthogonalLoop=1;jettySize=auto;html=1;" edge="1" parent="1" source="751wEYb7Iz7aQskUgbho-4" target="751wEYb7Iz7aQskUgbho-6">
          <mxGeometry relative="1" as="geometry" />
        </mxCell>
        <mxCell id="751wEYb7Iz7aQskUgbho-10" value="" style="edgeStyle=orthogonalEdgeStyle;rounded=0;orthogonalLoop=1;jettySize=auto;html=1;" edge="1" parent="1" source="751wEYb7Iz7aQskUgbho-4" target="751wEYb7Iz7aQskUgbho-9">
          <mxGeometry relative="1" as="geometry" />
        </mxCell>
        <mxCell id="751wEYb7Iz7aQskUgbho-12" value="" style="edgeStyle=orthogonalEdgeStyle;rounded=0;orthogonalLoop=1;jettySize=auto;html=1;" edge="1" parent="1" source="751wEYb7Iz7aQskUgbho-4" target="751wEYb7Iz7aQskUgbho-11">
          <mxGeometry relative="1" as="geometry" />
        </mxCell>
        <mxCell id="751wEYb7Iz7aQskUgbho-4" value="kafka" style="ellipse;whiteSpace=wrap;html=1;rounded=1;" vertex="1" parent="1">
          <mxGeometry x="430" y="390" width="80" height="80" as="geometry" />
        </mxCell>
        <mxCell id="751wEYb7Iz7aQskUgbho-8" style="edgeStyle=orthogonalEdgeStyle;rounded=0;orthogonalLoop=1;jettySize=auto;html=1;entryX=0;entryY=1;entryDx=0;entryDy=0;" edge="1" parent="1" source="751wEYb7Iz7aQskUgbho-6" target="751wEYb7Iz7aQskUgbho-4">
          <mxGeometry relative="1" as="geometry" />
        </mxCell>
        <mxCell id="751wEYb7Iz7aQskUgbho-6" value="flink/go&lt;br&gt;解压缩，分成5个topic" style="whiteSpace=wrap;html=1;rounded=1;fillColor=#ffe6cc;strokeColor=#d79b00;" vertex="1" parent="1">
          <mxGeometry x="170" y="553" width="120" height="60" as="geometry" />
        </mxCell>
        <mxCell id="751wEYb7Iz7aQskUgbho-15" style="edgeStyle=orthogonalEdgeStyle;rounded=0;orthogonalLoop=1;jettySize=auto;html=1;entryX=0;entryY=0.5;entryDx=0;entryDy=0;entryPerimeter=0;" edge="1" parent="1" source="751wEYb7Iz7aQskUgbho-9" target="751wEYb7Iz7aQskUgbho-13">
          <mxGeometry relative="1" as="geometry" />
        </mxCell>
        <mxCell id="751wEYb7Iz7aQskUgbho-9" value="flink&lt;br&gt;归并30s、5min" style="whiteSpace=wrap;html=1;rounded=1;fillColor=#d5e8d4;strokeColor=#82b366;" vertex="1" parent="1">
          <mxGeometry x="410" y="720" width="120" height="60" as="geometry" />
        </mxCell>
        <mxCell id="751wEYb7Iz7aQskUgbho-16" style="edgeStyle=orthogonalEdgeStyle;rounded=0;orthogonalLoop=1;jettySize=auto;html=1;entryX=0;entryY=0.5;entryDx=0;entryDy=0;entryPerimeter=0;exitX=0.5;exitY=1;exitDx=0;exitDy=0;" edge="1" parent="1" source="751wEYb7Iz7aQskUgbho-11" target="751wEYb7Iz7aQskUgbho-13">
          <mxGeometry relative="1" as="geometry" />
        </mxCell>
        <mxCell id="751wEYb7Iz7aQskUgbho-11" value="flink&lt;br&gt;snap入库" style="whiteSpace=wrap;html=1;rounded=1;fillColor=#d5e8d4;strokeColor=#82b366;" vertex="1" parent="1">
          <mxGeometry x="670" y="553" width="120" height="60" as="geometry" />
        </mxCell>
        <mxCell id="751wEYb7Iz7aQskUgbho-17" style="edgeStyle=orthogonalEdgeStyle;rounded=0;orthogonalLoop=1;jettySize=auto;html=1;entryX=0.5;entryY=1;entryDx=0;entryDy=0;" edge="1" parent="1" source="751wEYb7Iz7aQskUgbho-13" target="751wEYb7Iz7aQskUgbho-9">
          <mxGeometry relative="1" as="geometry">
            <Array as="points">
              <mxPoint x="990" y="810" />
              <mxPoint x="470" y="810" />
            </Array>
          </mxGeometry>
        </mxCell>
        <mxCell id="751wEYb7Iz7aQskUgbho-18" value="归并1h、4h、24h" style="edgeLabel;html=1;align=center;verticalAlign=middle;resizable=0;points=[];" vertex="1" connectable="0" parent="751wEYb7Iz7aQskUgbho-17">
          <mxGeometry x="-0.0667" y="1" relative="1" as="geometry">
            <mxPoint as="offset" />
          </mxGeometry>
        </mxCell>
        <mxCell id="751wEYb7Iz7aQskUgbho-13" value="hbase" style="shape=cylinder3;whiteSpace=wrap;html=1;boundedLbl=1;backgroundOutline=1;size=15;fillColor=#e1d5e7;strokeColor=#9673a6;" vertex="1" parent="1">
          <mxGeometry x="960" y="710" width="60" height="80" as="geometry" />
        </mxCell>
        <mxCell id="751wEYb7Iz7aQskUgbho-20" value="天佑、立夫" style="rounded=1;whiteSpace=wrap;html=1;fillColor=#ffe6cc;strokeColor=#d79b00;" vertex="1" parent="1">
          <mxGeometry x="730" y="120" width="120" height="60" as="geometry" />
        </mxCell>
        <mxCell id="751wEYb7Iz7aQskUgbho-22" value="1. 用google/flink operator&lt;br&gt;2. benchmark &lt;br&gt;天佑 hbase&lt;br&gt;李豪 flink&lt;br&gt;3. 每周五碰一下进度" style="text;html=1;align=left;verticalAlign=middle;resizable=0;points=[];autosize=1;strokeColor=none;fillColor=none;" vertex="1" parent="1">
          <mxGeometry x="930" y="130" width="160" height="90" as="geometry" />
        </mxCell>
        <mxCell id="751wEYb7Iz7aQskUgbho-24" value="待定：&lt;br&gt;1. 要打标签，smg id, smp id, se id, sn id,sz id&lt;br&gt;2. 原始数据snap要不要入库；&lt;br&gt;3. fileserver要不要解压缩ads tgz/json之后&lt;br&gt;再传给kafka，还是直接把tgz传到kafka中&lt;br&gt;4. 解压缩是用flink还是go，看实验结果&lt;br&gt;5. 传给kafka的数据要不要用protobuf格式" style="text;html=1;align=center;verticalAlign=middle;resizable=0;points=[];autosize=1;strokeColor=none;fillColor=none;" vertex="1" parent="1">
          <mxGeometry y="85" width="270" height="110" as="geometry" />
        </mxCell>
        <mxCell id="751wEYb7Iz7aQskUgbho-25" value="李豪" style="whiteSpace=wrap;html=1;rounded=1;fillColor=#d5e8d4;strokeColor=#82b366;" vertex="1" parent="1">
          <mxGeometry x="730" y="200" width="120" height="60" as="geometry" />
        </mxCell>
        <mxCell id="751wEYb7Iz7aQskUgbho-26" value="王彪、蔡铧宇" style="whiteSpace=wrap;html=1;rounded=1;fillColor=#e1d5e7;strokeColor=#9673a6;" vertex="1" parent="1">
          <mxGeometry x="730" y="280" width="120" height="60" as="geometry" />
        </mxCell>
        <mxCell id="751wEYb7Iz7aQskUgbho-27" value="A. 天佑给：五个topic接口格式" style="text;html=1;strokeColor=none;fillColor=none;align=center;verticalAlign=middle;whiteSpace=wrap;rounded=0;fontColor=#FF0000;" vertex="1" parent="1">
          <mxGeometry x="310" y="523" width="90" height="30" as="geometry" />
        </mxCell>
        <mxCell id="751wEYb7Iz7aQskUgbho-28" value="1" style="text;html=1;align=center;verticalAlign=middle;resizable=0;points=[];autosize=1;strokeColor=none;fillColor=none;" vertex="1" parent="1">
          <mxGeometry x="445" y="338" width="30" height="30" as="geometry" />
        </mxCell>
        <mxCell id="751wEYb7Iz7aQskUgbho-29" value="2" style="text;html=1;align=center;verticalAlign=middle;resizable=0;points=[];autosize=1;strokeColor=none;fillColor=none;" vertex="1" parent="1">
          <mxGeometry x="185" y="508" width="30" height="30" as="geometry" />
        </mxCell>
        <mxCell id="751wEYb7Iz7aQskUgbho-30" value="3" style="text;html=1;align=center;verticalAlign=middle;resizable=0;points=[];autosize=1;strokeColor=none;fillColor=none;" vertex="1" parent="1">
          <mxGeometry x="330" y="590" width="30" height="30" as="geometry" />
        </mxCell>
        <mxCell id="751wEYb7Iz7aQskUgbho-31" value="4" style="text;html=1;align=center;verticalAlign=middle;resizable=0;points=[];autosize=1;strokeColor=none;fillColor=none;" vertex="1" parent="1">
          <mxGeometry x="475" y="568" width="30" height="30" as="geometry" />
        </mxCell>
        <mxCell id="751wEYb7Iz7aQskUgbho-32" value="4" style="text;html=1;align=center;verticalAlign=middle;resizable=0;points=[];autosize=1;strokeColor=none;fillColor=none;" vertex="1" parent="1">
          <mxGeometry x="595" y="428" width="30" height="30" as="geometry" />
        </mxCell>
        <mxCell id="751wEYb7Iz7aQskUgbho-33" value="5" style="text;html=1;align=center;verticalAlign=middle;resizable=0;points=[];autosize=1;strokeColor=none;fillColor=none;" vertex="1" parent="1">
          <mxGeometry x="550" y="720" width="30" height="30" as="geometry" />
        </mxCell>
        <mxCell id="751wEYb7Iz7aQskUgbho-35" value="5" style="text;html=1;align=center;verticalAlign=middle;resizable=0;points=[];autosize=1;strokeColor=none;fillColor=none;" vertex="1" parent="1">
          <mxGeometry x="740" y="640" width="30" height="30" as="geometry" />
        </mxCell>
        <mxCell id="751wEYb7Iz7aQskUgbho-36" value="6" style="text;html=1;align=center;verticalAlign=middle;resizable=0;points=[];autosize=1;strokeColor=none;fillColor=none;" vertex="1" parent="1">
          <mxGeometry x="550" y="780" width="30" height="30" as="geometry" />
        </mxCell>
        <mxCell id="751wEYb7Iz7aQskUgbho-39" style="edgeStyle=orthogonalEdgeStyle;rounded=0;orthogonalLoop=1;jettySize=auto;html=1;entryX=1;entryY=0.5;entryDx=0;entryDy=0;entryPerimeter=0;" edge="1" parent="1" source="751wEYb7Iz7aQskUgbho-37" target="751wEYb7Iz7aQskUgbho-13">
          <mxGeometry relative="1" as="geometry" />
        </mxCell>
        <mxCell id="751wEYb7Iz7aQskUgbho-37" value="WEBAPI&lt;br&gt;报表" style="rounded=1;whiteSpace=wrap;html=1;fillColor=#e1d5e7;strokeColor=#9673a6;" vertex="1" parent="1">
          <mxGeometry x="1010" y="553" width="120" height="60" as="geometry" />
        </mxCell>
        <mxCell id="751wEYb7Iz7aQskUgbho-40" value="7" style="text;html=1;align=center;verticalAlign=middle;resizable=0;points=[];autosize=1;strokeColor=none;fillColor=none;" vertex="1" parent="1">
          <mxGeometry x="1045" y="628" width="30" height="30" as="geometry" />
        </mxCell>
        <mxCell id="751wEYb7Iz7aQskUgbho-41" value="B. 彪总要给表结构设计" style="text;html=1;strokeColor=none;fillColor=none;align=center;verticalAlign=middle;whiteSpace=wrap;rounded=0;fontColor=#FF0000;" vertex="1" parent="1">
          <mxGeometry x="920" y="670" width="90" height="30" as="geometry" />
        </mxCell>
      </root>
    </mxGraphModel>
  </diagram>
</mxfile>
